<?xml version="1.0" encoding="UTF-8" standalone="no"?>


<svg
   xmlns:dc="http://purl.org/dc/elements/1.1/"
   xmlns:cc="http://creativecommons.org/ns#"
   xmlns:rdf="http://www.w3.org/1999/02/22-rdf-syntax-ns#"
   xmlns:svg="http://www.w3.org/2000/svg"
   xmlns="http://www.w3.org/2000/svg"
   xmlns:sodipodi="http://sodipodi.sourceforge.net/DTD/sodipodi-0.dtd"
   xmlns:inkscape="http://www.inkscape.org/namespaces/inkscape"
   width="176"
   height="176"
   viewBox="0 0 41.708412 5.3943407"
   version="1.1"
   id="svg8"
   inkscape:version="0.92.0 r15299"
   sodipodi:docname="skillshare.svg">
  <defs
     id="defs2">
    <style
       id="style53">.cls-1{fill:#42444c;}</style>
  </defs>
  <sodipodi:namedview
     id="base"
     pagecolor="#ffffff"
     bordercolor="#666666"
     borderopacity="1.0"
     inkscape:pageopacity="0.0"
     inkscape:pageshadow="2"
     inkscape:zoom="4.0706499"
     inkscape:cx="73.852611"
     inkscape:cy="-30.758828"
     inkscape:document-units="mm"
     inkscape:current-layer="layer1"
     showgrid="false"
     fit-margin-top="0"
     fit-margin-left="0"
     fit-margin-right="0"
     fit-margin-bottom="0"
     units="px"
     inkscape:window-width="1280"
     inkscape:window-height="744"
     inkscape:window-x="-4"
     inkscape:window-y="-4"
     inkscape:window-maximized="1" />
  <metadata
     id="metadata5">
    <rdf:RDF>
      <cc:Work
         rdf:about="">
        <dc:format>image/svg+xml</dc:format>
        <dc:type
           rdf:resource="http://purl.org/dc/dcmitype/StillImage" />
        <dc:title></dc:title>
      </cc:Work>
    </rdf:RDF>
  </metadata>
  <g
     inkscape:label="Layer 1"
     inkscape:groupmode="layer"
     id="layer1"
     transform="translate(-237.27246,-418.98855)">
    <g
       id="g140"
       transform="matrix(0.26458333,0,0,0.26458333,237.22565,418.55317)">
      <path
         id="path59"
         d="M 36.36,9.49 A 1.06,1.06 0 0 1 35.3,8.43 v -5 a 1.065,1.065 0 1 1 2.13,0 v 5 a 1.06,1.06 0 0 1 -1.07,1.06 z"
         class="cls-1"
         inkscape:connector-curvature="0"
         style="fill:#42444c" />
      <path
         id="path61"
         d="M 79.68,21.52 H 79.5 a 8,8 0 0 1 -6,-2.68 1.0612493,1.0612493 0 0 1 1.67,-1.31 5.83,5.83 0 0 0 4.34,1.87 4.94,4.94 0 0 0 3.79,-1.27 2.81,2.81 0 0 0 0.59,-2.37 c -0.27,-1.83 -2.54,-2.61 -4.37,-3.24 l -0.21,-0.07 a 1.06,1.06 0 0 1 0.69,-2 l 0.21,0.07 c 2.12,0.73 5.33,1.83 5.78,4.95 a 4.91,4.91 0 0 1 -1.1,4.08 6.8,6.8 0 0 1 -5.21,1.97 z"
         class="cls-1"
         inkscape:connector-curvature="0"
         style="fill:#42444c" />
      <path
         id="path63"
         d="m 138.6,21.5 a 1.06,1.06 0 0 1 -0.91,-0.52 l -4,-6.76 a 1.06,1.06 0 0 1 0.45,-1.5 c 0,0 3.1,-1.55 3.1,-4.2 0,-2.65 -1.52,-4 -4.51,-4 h -4.83 a 1.065,1.065 0 0 1 0,-2.13 h 4.83 c 4.16,0 6.64,2.31 6.64,6.17 A 6.94,6.94 0 0 1 136,14 l 3.49,5.85 a 1.06,1.06 0 0 1 -0.91,1.61 z"
         class="cls-1"
         inkscape:connector-curvature="0"
         style="fill:#42444c" />
      <path
         id="path65"
         d="m 119.17,16.32 h -9.44 a 1.065,1.065 0 0 1 0,-2.13 h 9.44 a 1.065,1.065 0 1 1 0,2.13 z"
         class="cls-1"
         inkscape:connector-curvature="0"
         style="fill:#42444c" />
      <path
         id="path67"
         d="M 7.08,12.5 A 1.07,1.07 0 0 1 6.73,12.44 L 6.19,12.26 C 4.19,11.6 1.27,10.61 1.07,7.63 A 4.84,4.84 0 0 1 2.34,3.86 6.19,6.19 0 0 1 7,2.17 7.22,7.22 0 0 1 12.44,4.6 1.0612493,1.0612493 0 0 1 10.77,5.91 5.09,5.09 0 0 0 7,4.3 4.14,4.14 0 0 0 3.9,5.3 2.74,2.74 0 0 0 3.2,7.49 c 0.1,1.44 1.65,2.08 3.67,2.75 l 0.56,0.19 A 1.06,1.06 0 0 1 7.08,12.5 Z"
         class="cls-1"
         inkscape:connector-curvature="0"
         style="fill:#42444c" />
      <path
         id="path69"
         d="M 30.08,21.5 A 1.06,1.06 0 0 1 29.2,21.04 L 22.24,11 A 1.0736037,1.0736037 0 0 1 24,9.77 l 7,10.06 a 1.06,1.06 0 0 1 -0.87,1.67 z"
         class="cls-1"
         inkscape:connector-curvature="0"
         style="fill:#42444c" />
      <path
         id="path71"
         d="m 18.64,21.5 a 1.06,1.06 0 0 1 -1.06,-1.06 v -6 a 1.065,1.065 0 1 1 2.13,0 v 6 a 1.06,1.06 0 0 1 -1.07,1.06 z"
         class="cls-1"
         inkscape:connector-curvature="0"
         style="fill:#42444c" />
      <path
         id="path73"
         d="M 44,21.5 A 1.06,1.06 0 0 1 43,20.43 V 3.4 a 1.065,1.065 0 1 1 2.13,0 v 17 A 1.06,1.06 0 0 1 44,21.5 Z"
         class="cls-1"
         inkscape:connector-curvature="0"
         style="fill:#42444c" />
      <path
         id="path75"
         d="m 69.19,21.5 h -9.92 a 1.065,1.065 0 1 1 0,-2.13 h 9.92 a 1.065,1.065 0 0 1 0,2.13 z"
         class="cls-1"
         inkscape:connector-curvature="0"
         style="fill:#42444c" />
      <path
         id="path77"
         d="M 101,21.5 A 1.06,1.06 0 0 1 99.94,20.44 V 3.4 a 1.065,1.065 0 1 1 2.13,0 v 17 A 1.06,1.06 0 0 1 101,21.5 Z"
         class="cls-1"
         inkscape:connector-curvature="0"
         style="fill:#42444c" />
      <path
         id="path79"
         d="m 101,13.05 h -5.33 a 1.065,1.065 0 1 1 0,-2.13 H 101 a 1.065,1.065 0 1 1 0,2.13 z"
         class="cls-1"
         inkscape:connector-curvature="0"
         style="fill:#42444c" />
      <path
         id="path81"
         d="m 107.46,21.5 a 1.06,1.06 0 0 1 -1,-1.48 l 7.13,-17 a 1.0807868,1.0807868 0 0 1 2,0.82 l -7.13,17 a 1.06,1.06 0 0 1 -1,0.66 z"
         class="cls-1"
         inkscape:connector-curvature="0"
         style="fill:#42444c" />
      <path
         id="path83"
         d="m 156.24,21.5 h -10.45 a 1.06,1.06 0 0 1 -1.06,-1.06 v -8.52 a 1.065,1.065 0 0 1 2.13,0 v 7.45 h 9.39 a 1.065,1.065 0 0 1 0,2.13 z"
         class="cls-1"
         inkscape:connector-curvature="0"
         style="fill:#42444c" />
      <path
         id="path85"
         d="M 7.09,21.52 H 6.9 a 8,8 0 0 1 -6,-2.68 1.0730913,1.0730913 0 0 1 1.7,-1.31 5.83,5.83 0 0 0 4.34,1.87 4.94,4.94 0 0 0 3.79,-1.27 2.81,2.81 0 0 0 0.59,-2.37 C 11.05,13.93 8.78,13.15 6.95,12.52 L 6.74,12.45 a 1.06,1.06 0 0 1 0.69,-2 l 0.21,0.07 c 2.12,0.73 5.33,1.83 5.78,4.95 a 4.91,4.91 0 0 1 -1.1,4.08 6.8,6.8 0 0 1 -5.23,1.97 z"
         class="cls-1"
         inkscape:connector-curvature="0"
         style="fill:#42444c" />
      <path
         id="path87"
         d="m 79.68,12.5 a 1.07,1.07 0 0 1 -0.35,-0.06 l -0.54,-0.18 c -2,-0.66 -4.92,-1.65 -5.12,-4.63 A 4.84,4.84 0 0 1 74.93,3.85 6.17,6.17 0 0 1 79.61,2.16 7.22,7.22 0 0 1 85,4.6 1.0612493,1.0612493 0 0 1 83.33,5.91 5.09,5.09 0 0 0 79.58,4.3 a 4.09,4.09 0 0 0 -3.1,1 2.74,2.74 0 0 0 -0.68,2.17 c 0.1,1.44 1.65,2.08 3.67,2.75 l 0.56,0.19 a 1.06,1.06 0 0 1 -0.35,2.07 z"
         class="cls-1"
         inkscape:connector-curvature="0"
         style="fill:#42444c" />
      <path
         id="path89"
         d="M 54,21.5 H 44 a 1.065,1.065 0 0 1 0,-2.13 h 10 a 1.065,1.065 0 0 1 0,2.13 z"
         class="cls-1"
         inkscape:connector-curvature="0"
         style="fill:#42444c" />
      <path
         id="path91"
         d="M 36.36,21.5 A 1.06,1.06 0 0 1 35.3,20.44 v -12 a 1.065,1.065 0 1 1 2.13,0 v 12 a 1.06,1.06 0 0 1 -1.07,1.06 z"
         class="cls-1"
         inkscape:connector-curvature="0"
         style="fill:#42444c" />
      <path
         id="path93"
         d="M 59.27,21.5 A 1.06,1.06 0 0 1 58.21,20.44 V 3.4 a 1.065,1.065 0 0 1 2.13,0 v 17 a 1.06,1.06 0 0 1 -1.07,1.1 z"
         class="cls-1"
         inkscape:connector-curvature="0"
         style="fill:#42444c" />
      <path
         id="path95"
         d="M 90.32,21.5 A 1.06,1.06 0 0 1 89.26,20.44 V 3.4 a 1.065,1.065 0 1 1 2.13,0 v 17 a 1.06,1.06 0 0 1 -1.07,1.1 z"
         class="cls-1"
         inkscape:connector-curvature="0"
         style="fill:#42444c" />
      <path
         id="path97"
         d="m 95.67,13.05 h -5.35 a 1.065,1.065 0 1 1 0,-2.13 h 5.34 a 1.065,1.065 0 1 1 0,2.13 z"
         class="cls-1"
         inkscape:connector-curvature="0"
         style="fill:#42444c" />
      <path
         id="path99"
         d="m 121.72,21.5 a 1.06,1.06 0 0 1 -1,-0.65 l -7.13,-17 a 1.0807868,1.0807868 0 1 1 2,-0.82 l 7.13,17 a 1.07,1.07 0 0 1 -1,1.48 z"
         class="cls-1"
         inkscape:connector-curvature="0"
         style="fill:#42444c" />
      <path
         id="path101"
         d="m 127.85,21.5 a 1.06,1.06 0 0 1 -1.06,-1.06 V 3.4 a 1.065,1.065 0 1 1 2.13,0 v 17 a 1.06,1.06 0 0 1 -1.07,1.1 z"
         class="cls-1"
         inkscape:connector-curvature="0"
         style="fill:#42444c" />
      <path
         id="path103"
         d="m 134.56,14.74 h -6.16 a 1.065,1.065 0 0 1 0,-2.13 h 6.16 a 1.065,1.065 0 0 1 0,2.13 z"
         class="cls-1"
         inkscape:connector-curvature="0"
         style="fill:#42444c" />
      <path
         id="path105"
         d="m 154.74,13 h -8.95 a 1.06,1.06 0 0 1 -1.06,-1.06 V 3.4 a 1.06,1.06 0 0 1 1.06,-1.06 h 10.45 a 1.065,1.065 0 0 1 0,2.13 h -9.39 v 6.39 h 7.88 a 1.065,1.065 0 0 1 0,2.13 z"
         class="cls-1"
         inkscape:connector-curvature="0"
         style="fill:#42444c" />
      <path
         id="path107"
         d="M 18.64,15.46 A 1.06,1.06 0 0 1 17.58,14.4 v -11 a 1.065,1.065 0 1 1 2.13,0 v 8.39 l 9,-9.14 a 1.0642486,1.0642486 0 1 1 1.52,1.49 l -10.78,11 a 1.06,1.06 0 0 1 -0.81,0.32 z"
         class="cls-1"
         inkscape:connector-curvature="0"
         style="fill:#42444c" />
    </g>
  </g>
  <style
     id="style10"
     type="text/css">
	.st0{fill:#41444C;}
</style>
  <style
     id="style142"
     type="text/css">
	.st0{fill:#FFFFFF;}
</style>
  <style
     id="style185"
     type="text/css">
	.st0{fill:#2FBFC7;}
</style>
</svg>
